<svg xmlns="http://www.w3.org/2000/svg" width="240" height="240" viewBox="0 0 240 240">
  <g fill="#E43C00" fill-opacity="0.3" stroke="none">
    <!-- central ogee spray -->
    <path d="M 120.0 150.0 Q 146.0 117.80000000000001 120.0 58.0 Q 94.0 117.80000000000001 120.0 150.0 Z M 120.0 136.0 Q 160.0 115.0 120.0 76.0 Q 80.0 115.0 120.0 136.0 Z M 120.0 136.0 Q 80.0 115.0 120.0 76.0 Q 160.0 115.0 120.0 136.0 Z M 120.0 110.0 Q 150.0 93.9 120.0 64.0 Q 90.0 93.9 120.0 110.0 Z M 120.0 110.0 Q 90.0 93.9 120.0 64.0 Q 150.0 93.9 120.0 110.0 Z M 120.0 152.0 Q 150.0 138.0 120.0 112.0 Q 90.0 138.0 120.0 152.0 Z M 120.0 152.0 Q 90.0 138.0 120.0 112.0 Q 150.0 138.0 120.0 152.0 Z"/>
    <!-- mirrored top spray (drop) -->
    <g transform="rotate(180 120.0 120.0)"><path d="M 120.0 150.0 Q 146.0 117.80000000000001 120.0 58.0 Q 94.0 117.80000000000001 120.0 150.0 Z M 120.0 136.0 Q 160.0 115.0 120.0 76.0 Q 80.0 115.0 120.0 136.0 Z M 120.0 136.0 Q 80.0 115.0 120.0 76.0 Q 160.0 115.0 120.0 136.0 Z M 120.0 110.0 Q 150.0 93.9 120.0 64.0 Q 90.0 93.9 120.0 110.0 Z M 120.0 110.0 Q 90.0 93.9 120.0 64.0 Q 150.0 93.9 120.0 110.0 Z M 120.0 152.0 Q 150.0 138.0 120.0 112.0 Q 90.0 138.0 120.0 152.0 Z M 120.0 152.0 Q 90.0 138.0 120.0 112.0 Q 150.0 138.0 120.0 152.0 Z"/></g>
    <!-- corner quarter-blooms: full bloom forms across 4 tiled corners -->
    <ellipse cx="18.7" cy="0.0" rx="14.3" ry="7.5" transform="rotate(0.0 18.7 0.0)"/><ellipse cx="9.4" cy="16.2" rx="14.3" ry="7.5" transform="rotate(60.0 9.4 16.2)"/><ellipse cx="-9.3" cy="16.2" rx="14.3" ry="7.5" transform="rotate(120.0 -9.3 16.2)"/><ellipse cx="-18.7" cy="0.0" rx="14.3" ry="7.5" transform="rotate(180.0 -18.7 0.0)"/><ellipse cx="-9.4" cy="-16.2" rx="14.3" ry="7.5" transform="rotate(240.0 -9.4 -16.2)"/><ellipse cx="9.4" cy="-16.2" rx="14.3" ry="7.5" transform="rotate(300.0 9.4 -16.2)"/><circle cx="0" cy="0" r="9.5"/>
    <ellipse cx="258.7" cy="0.0" rx="14.3" ry="7.5" transform="rotate(0.0 258.7 0.0)"/><ellipse cx="249.3" cy="16.2" rx="14.3" ry="7.5" transform="rotate(60.0 249.3 16.2)"/><ellipse cx="230.7" cy="16.2" rx="14.3" ry="7.5" transform="rotate(120.0 230.7 16.2)"/><ellipse cx="221.3" cy="0.0" rx="14.3" ry="7.5" transform="rotate(180.0 221.3 0.0)"/><ellipse cx="230.6" cy="-16.2" rx="14.3" ry="7.5" transform="rotate(240.0 230.6 -16.2)"/><ellipse cx="249.3" cy="-16.2" rx="14.3" ry="7.5" transform="rotate(300.0 249.3 -16.2)"/><circle cx="240" cy="0" r="9.5"/>
    <ellipse cx="18.7" cy="240.0" rx="14.3" ry="7.5" transform="rotate(0.0 18.7 240.0)"/><ellipse cx="9.4" cy="256.2" rx="14.3" ry="7.5" transform="rotate(60.0 9.4 256.2)"/><ellipse cx="-9.3" cy="256.2" rx="14.3" ry="7.5" transform="rotate(120.0 -9.3 256.2)"/><ellipse cx="-18.7" cy="240.0" rx="14.3" ry="7.5" transform="rotate(180.0 -18.7 240.0)"/><ellipse cx="-9.4" cy="223.8" rx="14.3" ry="7.5" transform="rotate(240.0 -9.4 223.8)"/><ellipse cx="9.4" cy="223.8" rx="14.3" ry="7.5" transform="rotate(300.0 9.4 223.8)"/><circle cx="0" cy="240" r="9.5"/>
    <ellipse cx="258.7" cy="240.0" rx="14.3" ry="7.5" transform="rotate(0.0 258.7 240.0)"/><ellipse cx="249.3" cy="256.2" rx="14.3" ry="7.5" transform="rotate(60.0 249.3 256.2)"/><ellipse cx="230.7" cy="256.2" rx="14.3" ry="7.5" transform="rotate(120.0 230.7 256.2)"/><ellipse cx="221.3" cy="240.0" rx="14.3" ry="7.5" transform="rotate(180.0 221.3 240.0)"/><ellipse cx="230.6" cy="223.8" rx="14.3" ry="7.5" transform="rotate(240.0 230.6 223.8)"/><ellipse cx="249.3" cy="223.8" rx="14.3" ry="7.5" transform="rotate(300.0 249.3 223.8)"/><circle cx="240" cy="240" r="9.5"/>
    <!-- mid-edge filler dots (tile across edges) -->
    <circle cx="120.0" cy="0" r="5"/><circle cx="120.0" cy="240" r="5"/>
    <circle cx="0" cy="120.0" r="5"/><circle cx="240" cy="120.0" r="5"/>
  </g>
</svg>